<?xml version="1.0" encoding="UTF-8" standalone="no"?>
<!-- Generator: Adobe Illustrator 19.0.0, SVG Export Plug-In . SVG Version: 6.00 Build 0)  -->

<svg
   xmlns:dc="http://purl.org/dc/elements/1.1/"
   xmlns:cc="http://creativecommons.org/ns#"
   xmlns:rdf="http://www.w3.org/1999/02/22-rdf-syntax-ns#"
   xmlns:svg="http://www.w3.org/2000/svg"
   xmlns="http://www.w3.org/2000/svg"
   xmlns:sodipodi="http://sodipodi.sourceforge.net/DTD/sodipodi-0.dtd"
   xmlns:inkscape="http://www.inkscape.org/namespaces/inkscape"
   version="1.1"
   id="Layer_1"
   x="0px"
   y="0px"
   viewBox="0 0 496.158 496.158"
   style="enable-background:new 0 0 496.158 496.158;"
   xml:space="preserve"
   inkscape:version="0.91 r13725"
   sodipodi:docname="child.svg"><metadata
     id="metadata79"><rdf:RDF><cc:Work
         rdf:about=""><dc:format>image/svg+xml</dc:format><dc:type
           rdf:resource="http://purl.org/dc/dcmitype/StillImage" /></cc:Work></rdf:RDF></metadata><defs
     id="defs77" /><sodipodi:namedview
     pagecolor="#ffffff"
     bordercolor="#666666"
     borderopacity="1"
     objecttolerance="10"
     gridtolerance="10"
     guidetolerance="10"
     inkscape:pageopacity="0"
     inkscape:pageshadow="2"
     inkscape:window-width="1920"
     inkscape:window-height="1027"
     id="namedview75"
     showgrid="false"
     inkscape:snap-global="true"
     inkscape:snap-bbox="true"
     inkscape:bbox-nodes="true"
     inkscape:bbox-paths="true"
     inkscape:snap-bbox-midpoints="true"
     inkscape:snap-bbox-edge-midpoints="true"
     inkscape:object-paths="true"
     inkscape:snap-intersection-paths="true"
     inkscape:object-nodes="true"
     inkscape:snap-smooth-nodes="true"
     inkscape:snap-midpoints="true"
     inkscape:snap-others="false"
     inkscape:zoom="1.7292879"
     inkscape:cx="248.07899"
     inkscape:cy="248.07899"
     inkscape:window-x="-8"
     inkscape:window-y="-8"
     inkscape:window-maximized="1"
     inkscape:current-layer="Layer_1" /><path
     style="fill:#EB9783;"
     d="M322.801,134.027c-18.768-6.404-129.198-6.404-147.967,0c0,0-75.897,35.945-40.952,108.821  c0,0,37.675,31.022,33.854,93.558c0,0,19.862,22.229,80.261,22.632v0.019c0.28,0,0.542-0.009,0.819-0.009  c0.279,0,0.542,0.009,0.822,0.009v-0.019c60.398-0.403,80.26-22.632,80.26-22.632c-3.819-62.536,33.855-93.558,33.855-93.558  C398.699,169.972,322.801,134.027,322.801,134.027z"
     id="path5" /><path
     style="fill:#EDECC5;"
     d="M322.801,141.905c-18.768-6.404-129.198-6.404-147.967,0c0,0-75.897,35.945-40.952,108.822  c0,0,37.675,31.021,33.854,93.557c0,0,19.862,22.229,80.261,22.632v0.019c0.28,0,0.542-0.009,0.819-0.009  c0.279,0,0.542,0.009,0.822,0.009v-0.019c60.398-0.403,80.26-22.632,80.26-22.632c-3.819-62.536,33.855-93.557,33.855-93.557  C398.699,177.85,322.801,141.905,322.801,141.905z"
     id="path7" /><path
     style="fill:#D88473;"
     d="M178.062,350.068c-0.594-9.607-8.892-133.198-42.188-135.278  c-34.643-2.165-36.131,31.505-36.131,31.505s-0.248,6.401-0.248,13.295c0,3.69,0,12.31,0,12.31  c1.033,3.987,4.039,9.463,7.879,16.003c0,0,41.978,67.213,63.027,66.967c0,0,5.419,0.406,8.125,0  C178.527,354.87,178.086,350.457,178.062,350.068z"
     id="path9" /><path
     style="fill:#D1CEAE;"
     d="M132.488,227.091c-31.515-1.969-31.267,28.067-31.267,28.067s1.229,11.571,12.308,28.56  c0,0,39.889,66.598,56.876,65.367C170.405,349.084,164,229.06,132.488,227.091z"
     id="path11" /><path
     style="fill:#EB9783;"
     d="M99.496,136.255V271.9c0,0,96.103-46.628,96.916-82.235  C196.412,189.665,209.445,121.842,99.496,136.255z"
     id="path13" /><path
     style="fill:#EDECC5;"
     d="M99.496,141.412V259.59c0,0,87.156-40.624,87.895-71.646  C187.391,187.944,199.208,128.856,99.496,141.412z"
     id="path15" /><path
     style="fill:#D88473;"
     d="M396.414,246.295c0,0-1.488-33.67-36.131-31.505c-33.296,2.08-41.594,125.671-42.188,135.278  c-0.023,0.389-0.465,4.802-0.465,4.802c2.707,0.406,8.125,0,8.125,0c21.051,0.247,63.027-66.967,63.027-66.967  c3.84-6.54,6.846-12.017,7.879-16.003c0,0,0-8.62,0-12.31C396.662,252.696,396.414,246.295,396.414,246.295z"
     id="path17" /><path
     style="fill:#D1CEAE;"
     d="M363.67,227.091c-31.512,1.969-37.917,121.994-37.917,121.994  c16.987,1.231,56.876-65.367,56.876-65.367c11.079-16.988,12.308-28.56,12.308-28.56S395.184,225.121,363.67,227.091z"
     id="path19" /><path
     style="fill:#EB9783;"
     d="M299.746,189.665c0.813,35.606,96.916,82.235,96.916,82.235V136.255  C286.713,121.842,299.746,189.665,299.746,189.665z"
     id="path21" /><path
     style="fill:#EDECC5;"
     d="M308.767,187.944c0.738,31.022,87.895,71.646,87.895,71.646V141.412  C296.95,128.856,308.767,187.944,308.767,187.944z"
     id="path23" /><circle
     style="fill:#C4C6AC;"
     cx="163.269"
     cy="182.039"
     r="11.818"
     id="circle25" /><circle
     style="fill:#D3D3C2;"
     cx="163.269"
     cy="182.039"
     r="8.987"
     id="circle27" /><g
     id="g29"><circle
       style="fill:#C4C6AC;"
       cx="159.599"
       cy="182.039"
       r="2.858"
       id="circle31" /><circle
       style="fill:#C4C6AC;"
       cx="167.419"
       cy="182.039"
       r="2.858"
       id="circle33" /><circle
       style="fill:#C4C6AC;"
       cx="328.099"
       cy="182.039"
       r="11.818"
       id="circle35" /></g><circle
     style="fill:#D3D3C2;"
     cx="328.099"
     cy="182.039"
     r="8.987"
     id="circle37" /><g
     id="g39"><circle
       style="fill:#C4C6AC;"
       cx="324.429"
       cy="182.039"
       r="2.858"
       id="circle41" /><path
       style="fill:#C4C6AC;"
       d="M332.256,179.178c-1.578,0-2.859,1.28-2.859,2.858s1.281,2.858,2.859,2.858   c1.575,0,2.856-1.28,2.856-2.858S333.831,179.178,332.256,179.178z"
       id="path43" /></g><g
     id="g45" /><g
     id="g47" /><g
     id="g49" /><g
     id="g51" /><g
     id="g53" /><g
     id="g55" /><g
     id="g57" /><g
     id="g59" /><g
     id="g61" /><g
     id="g63" /><g
     id="g65" /><g
     id="g67" /><g
     id="g69" /><g
     id="g71" /><g
     id="g73" /></svg>