<?xml version="1.0" encoding="UTF-8" standalone="no"?>
<!-- Created with Inkscape (http://www.inkscape.org/) -->

<svg
   width="459.82001"
   height="459.82001"
   viewBox="0 0 121.6607 121.66071"
   version="1.1"
   id="svg5"
   xml:space="preserve"
   inkscape:version="1.2.2 (b0a8486541, 2022-12-01)"
   sodipodi:docname="claw fat.svg"
   xmlns:inkscape="http://www.inkscape.org/namespaces/inkscape"
   xmlns:sodipodi="http://sodipodi.sourceforge.net/DTD/sodipodi-0.dtd"
   xmlns="http://www.w3.org/2000/svg"
   xmlns:svg="http://www.w3.org/2000/svg"><sodipodi:namedview
     id="namedview7"
     pagecolor="#ffffff"
     bordercolor="#666666"
     borderopacity="1.0"
     inkscape:showpageshadow="2"
     inkscape:pageopacity="0.0"
     inkscape:pagecheckerboard="true"
     inkscape:deskcolor="#d1d1d1"
     inkscape:document-units="mm"
     showgrid="false"
     inkscape:zoom="1"
     inkscape:cx="313"
     inkscape:cy="143"
     inkscape:window-width="2560"
     inkscape:window-height="1371"
     inkscape:window-x="0"
     inkscape:window-y="0"
     inkscape:window-maximized="1"
     inkscape:current-layer="layer1" /><defs
     id="defs2" /><g
     inkscape:label="Layer 1"
     inkscape:groupmode="layer"
     id="layer1"
     transform="translate(-17.739486,-30.052429)"><path
       id="path2518"
       style="fill:#ffffff;fill-opacity:1;stroke:none;stroke-width:0.264583px;stroke-linecap:butt;stroke-linejoin:miter;stroke-opacity:1"
       d="m 58.803646,34.425806 -3.8561,11.818916 c 0.12139,-0.120044 0.24212,-0.240515 0.37156,-0.357084 l 0.0062,-0.0057 0.0062,-0.0062 c 2.70366,-2.378148 6.29595,-2.371835 9.12089,-0.988054 0.21378,0.10472 0.42314,0.219388 0.62994,0.338998 z m 1.69912,12.131042 c -1.19813,-0.0095 -2.37282,0.387156 -3.41581,1.301729 -1.20027,1.082656 -1.94211,2.333133 -2.39159,3.732072 l 11.29854,-2.108398 c -0.7175,-0.931092 -1.66004,-1.708265 -2.70371,-2.219503 -0.90938,-0.445458 -1.85555,-0.698521 -2.78743,-0.7059 z" /><path
       id="path2518-3"
       style="fill:#ffffff;fill-opacity:1;stroke:none;stroke-width:0.264583px;stroke-linecap:butt;stroke-linejoin:miter;stroke-opacity:1"
       d="m 82.776856,30.052429 -5.88698,10.716659 c 0.04805,-0.02375 0.09697,-0.0461 0.14573,-0.06873 0.02416,-0.01128 0.04804,-0.02307 0.07235,-0.03411 0.06002,-0.02724 0.12044,-0.05386 0.18138,-0.07958 0.0017,-7.23e-4 0.0035,-0.0013 0.0052,-0.0021 0.0675,-0.02844 0.13552,-0.05609 0.20412,-0.08268 5.1e-4,-1.97e-4 0.001,-3.19e-4 0.0015,-5.16e-4 0.05026,-0.01946 0.10058,-0.03889 0.15142,-0.05736 6.6e-4,-2.42e-4 0.0014,-2.76e-4 0.0021,-5.17e-4 5.2e-4,-1.86e-4 10e-4,-3.3e-4 0.0016,-5.17e-4 0.0123,-0.0045 0.02487,-0.0085 0.03721,-0.01292 0.06601,-0.02358 0.13251,-0.04628 0.19947,-0.06821 0.05267,-0.01725 0.1054,-0.0344 0.15865,-0.05064 0.0021,-6.39e-4 0.0041,-0.0014 0.0062,-0.0021 0.08082,-0.02462 0.16232,-0.04797 0.24443,-0.07028 0.0043,-0.0012 0.0086,-0.0025 0.01292,-0.0036 0.0029,-7.82e-4 0.0059,-0.0013 0.0088,-0.0021 0.04343,-0.01166 0.08697,-0.02309 0.13074,-0.03411 0.0033,-8.27e-4 0.0065,-0.0018 0.0098,-0.0026 0.09262,-0.02326 0.18592,-0.04524 0.28009,-0.06563 0.0034,-7.42e-4 0.0069,-0.0013 0.01033,-0.0021 0.02561,-0.0055 0.05128,-0.01073 0.077,-0.01602 0.0027,-5.65e-4 0.0055,-9.87e-4 0.0083,-0.0016 0.26508,-0.05443 0.53611,-0.09822 0.81235,-0.130742 5.2e-4,-6e-5 10e-4,6e-5 0.0015,0 0.01499,-0.0018 0.02995,-0.0035 0.04496,-0.0052 8.7e-4,-9.8e-5 0.0017,-4.2e-4 0.0026,-5.17e-4 0.283,-0.03193 0.5711,-0.05243 0.86454,-0.06201 7e-4,-2.2e-5 0.0014,2.3e-5 0.0021,0 0.0083,-2.66e-4 0.01651,-7.84e-4 0.0248,-10e-4 8.5e-4,-2.6e-5 0.0017,2.5e-5 0.0026,0 0.30209,-0.0091 0.60957,-0.0067 0.92139,0.0072 0.0014,6.2e-5 0.0028,-6.2e-5 0.0041,0 0.31667,0.01427 0.6379,0.04057 0.96325,0.07803 0.20387,0.01425 0.41067,0.03566 0.61909,0.06356 0.0272,0.0036 0.05437,0.008 0.08164,0.01188 0.0052,7.36e-4 0.01035,0.0018 0.01551,0.0026 0.17761,0.02561 0.35646,0.05604 0.53588,0.0925 0.04087,0.0082 0.08155,0.0165 0.12247,0.02532 7e-4,1.51e-4 0.0014,3.67e-4 0.0021,5.17e-4 0.17818,0.03875 0.35678,0.08298 0.53537,0.133325 0.0043,0.0012 0.0086,0.0024 0.01292,0.0036 0.04437,0.0125 0.08845,0.02552 0.13281,0.03876 0.0057,0.0017 0.01139,0.0035 0.01705,0.0052 0.1663,0.05029 0.33222,0.105173 0.49764,0.166398 7.3e-4,2.65e-4 0.0014,7.68e-4 0.0021,10e-4 0.05976,0.02201 0.11925,0.04473 0.1788,0.06821 0.0021,8.25e-4 0.0041,0.0018 0.0062,0.0026 0.1457,0.05788 0.29053,0.121068 0.4346,0.188102 0.0039,0.0018 0.008,0.0033 0.01189,0.0052 0.07773,0.03616 0.15492,0.07373 0.23202,0.112654 7e-4,3.49e-4 0.0014,6.85e-4 0.0021,10e-4 0.13524,0.06854 0.26964,0.141285 0.40256,0.218591 5.4e-4,3.13e-4 0.001,7.21e-4 0.0015,10e-4 0.08107,0.04708 0.16129,0.09578 0.24133,0.146244 8.5e-4,5.38e-4 0.0017,0.001 0.0026,0.0015 0.1326,0.08379 0.26391,0.172289 0.39326,0.265617 0.0024,0.0017 0.0049,0.003 0.0072,0.0047 z m -2.08307,12.496912 c -0.22612,0.0065 -0.4432,0.02246 -0.65371,0.04548 -0.0012,1.31e-4 -0.0024,3.85e-4 -0.0036,5.17e-4 -0.01427,0.0016 -0.02868,0.003 -0.04289,0.0047 -7.2e-4,8.3e-5 -0.0013,4.32e-4 -0.0021,5.16e-4 -0.20411,0.02365 -0.40096,0.05451 -0.59014,0.09302 -3.7e-4,7.5e-5 -6.7e-4,4.41e-4 -0.001,5.17e-4 -0.01317,0.0027 -0.02617,0.0055 -0.03928,0.0083 -0.0022,4.51e-4 -0.0041,0.0011 -0.0062,0.0016 -0.19128,0.04042 -0.37618,0.08714 -0.5519,0.14211 -0.17722,0.05544 -0.34565,0.118667 -0.50695,0.188103 -3.5e-4,1.51e-4 -6.8e-4,3.65e-4 -10e-4,5.16e-4 -0.01153,0.005 -0.02319,0.01 -0.03463,0.01499 -0.0012,5.4e-4 -0.0024,0.001 -0.0036,0.0016 -0.15512,0.06839 -0.3028,0.143022 -0.44287,0.223759 -6.7e-4,3.85e-4 -0.0014,6.45e-4 -0.0021,10e-4 -0.0092,0.0054 -0.01817,0.01113 -0.02739,0.01654 -2.1e-4,1.23e-4 -3e-4,3.93e-4 -5.1e-4,5.17e-4 -0.14353,0.08428 -0.28035,0.174187 -0.40773,0.270784 -0.11727,0.08893 -0.22727,0.185862 -0.33435,0.286287 -2.7e-4,2.53e-4 -7.6e-4,2.64e-4 -0.001,5.17e-4 -0.03313,0.03167 -0.06559,0.06377 -0.09767,0.09663 -0.06025,0.06052 -0.11703,0.124931 -0.17363,0.189653 -5.6e-4,6.5e-4 -9.9e-4,0.0014 -0.0015,0.0021 -0.08371,0.09748 -0.1638,0.198865 -0.23978,0.305407 -0.0019,0.0026 -0.0038,0.0051 -0.0057,0.0078 l 10.46912,1.102775 c -0.05579,-0.108447 -0.11344,-0.212905 -0.17311,-0.313676 -0.0011,-0.0019 -0.002,-0.0038 -0.0031,-0.0057 -0.04765,-0.07963 -0.09622,-0.157766 -0.14625,-0.232544 -8.1e-4,-0.0012 -0.0018,-0.0024 -0.0026,-0.0036 -0.0431,-0.06506 -0.08706,-0.128521 -0.13178,-0.190169 -0.0011,-0.0015 -0.002,-0.0031 -0.0031,-0.0047 -0.08441,-0.114535 -0.17034,-0.22565 -0.25993,-0.328662 -3.2e-4,-3.64e-4 -7.2e-4,-6.7e-4 -0.001,-10e-4 -0.0139,-0.01617 -0.02784,-0.03216 -0.04186,-0.04806 -0.11315,-0.126824 -0.22915,-0.246984 -0.34882,-0.3576 -0.25341,-0.234244 -0.52591,-0.436352 -0.81183,-0.608749 -1.2e-4,-7.3e-5 -4e-4,7.3e-5 -5.2e-4,0 -0.14303,-0.08622 -0.2891,-0.164853 -0.43822,-0.236678 -0.14897,-0.07175 -0.30105,-0.136719 -0.45475,-0.19482 -1.5e-4,-5.6e-5 -3.7e-4,5.6e-5 -5.2e-4,0 -0.3077,-0.116289 -0.62306,-0.205943 -0.94154,-0.271818 -0.15924,-0.03294 -0.31915,-0.05972 -0.47904,-0.08113 -0.1599,-0.02141 -0.31985,-0.03746 -0.47904,-0.04806 l -0.03359,-0.0021 -0.03256,-0.0036 h -5.1e-4 c -0.26865,-0.03158 -0.52887,-0.05315 -0.78083,-0.06511 -5.1e-4,-2.4e-5 -0.0011,2.4e-5 -0.0015,0 -0.25226,-0.01194 -0.49632,-0.01456 -0.73174,-0.0078 z" /><path
       id="path2528"
       style="fill:#ffffff;fill-opacity:1;stroke:none;stroke-width:0.264583px;stroke-linecap:butt;stroke-linejoin:miter;stroke-opacity:1"
       d="m 17.739486,74.194438 3.339848,12.665376 c 0.754994,-2.852848 2.65549,-5.429026 5.441011,-6.798034 1.013082,-0.619846 2.053023,-1.011298 3.090768,-1.214913 z m 13.603821,7.076053 c -1.135864,0.0013 -2.291415,0.323633 -3.485059,1.064535 l -0.06046,0.03721 -0.0646,0.03101 c -3.180109,1.530582 -4.848733,5.350125 -4.202844,8.683191 L 33.561259,81.658065 C 32.82653,81.40973 32.089266,81.269648 31.343307,81.270491 Z" /><path
       id="path2518-6"
       style="fill:#ffffff;fill-opacity:1;stroke:none;stroke-width:0.264583px;stroke-linecap:butt;stroke-linejoin:miter;stroke-opacity:1"
       d="m 105.37755,36.452555 -7.105514,10.978658 c 0.67155,-0.340751 1.37858,-0.610826 2.102204,-0.797367 2.94256,-0.758557 6.30892,-0.31562 8.72608,1.676383 z m -2.28823,12.478825 c -0.68633,0.0018 -1.38052,0.09118 -2.05517,0.2651 -1.480854,0.381744 -2.783764,1.120327 -3.676784,2.180746 l 11.816334,1.649511 c -0.21223,-0.578599 -0.48328,-1.144015 -0.83095,-1.695503 -1.20336,-1.625988 -3.19444,-2.405402 -5.25343,-2.399854 z" /><path
       id="path2518-6-0"
       style="fill:#ffffff;fill-opacity:1;stroke:none;stroke-width:0.264583px;stroke-linecap:butt;stroke-linejoin:miter;stroke-opacity:1"
       d="m 126.49151,48.478178 -7.83467,8.884729 c 1.30699,-0.38438 2.70975,-0.48087 4.05195,-0.306958 1.99442,0.25842 3.96791,1.136416 5.37849,2.586922 z m -5.03742,11.137304 c -1.68547,-0.01568 -3.29061,0.536813 -4.34651,1.637627 l 10.32392,3.058728 c -0.0209,-0.200544 -0.0349,-0.401134 -0.0615,-0.601514 -0.46571,-2.301235 -2.55794,-3.714629 -5.00176,-4.031279 -0.30542,-0.03957 -0.61109,-0.06074 -0.91416,-0.06356 z" /><path
       style="color:#000000;fill:#ffffff;fill-opacity:1;stroke:none;stroke-width:0;stroke-dasharray:none"
       d="m 82.356566,41.310482 c -4.7762,-0.561608 -7.96558,1.657075 -8.06561,6.316275 -1.25592,10.024742 -1.5834,22.1753 -3.15119,32.175905 -1.57681,-9.049658 -1.02422,-18.320188 -2.49115,-27.363529 -0.71491,-5.531407 -7.89018,-9.577354 -12.44933,-5.567097 -5.055421,4.552632 -3.06912,11.962002 -3.10729,17.928455 0.43946,9.012411 1.30086,18.135524 -0.13599,27.096597 -3.277976,3.986752 -8.598014,-2.914844 -11.372598,-5.207685 -3.108368,-4.573512 -8.88055,-8.920302 -14.4283,-5.476783 -5.317975,2.559546 -7.013313,10.328028 -2.537542,14.485534 7.578557,9.088946 17.361326,16.701286 21.774154,28.043956 2.926283,6.82779 6.079236,14.06603 12.548106,18.2872 5.75068,4.49302 11.91311,9.38015 19.5679,9.60723 15.87816,1.07673 32.933304,-9.27189 36.469584,-25.35664 2.99359,-13.67898 5.8156,-27.414435 10.01334,-40.792907 1.90005,-7.195447 4.69583,-14.519876 3.68442,-22.001578 -1.16248,-5.948686 -10.72935,-7.07359 -13.4662,-1.859521 -3.12379,7.231012 -3.89453,15.312945 -7.04727,22.506698 -1.84351,-3.862477 0.76207,-10.061011 1.06287,-14.704529 0.45392,-6.163442 3.85869,-13.129775 0.20631,-18.851931 -3.96325,-5.429733 -14.444424,-3.012706 -14.638534,4.058536 -1.52435,8.693459 -2.05443,17.64487 -4.60161,26.111544 -1.76718,-3.610618 -0.46448,-9.904808 -0.74681,-14.550984 0.0101,-6.58759 0.0235,-10.59666 -0.29933,-17.175698 -0.27993,-5.705332 -3.78308,-7.508907 -6.78793,-7.709048 z"
       id="path2131-3-9"
       sodipodi:nodetypes="sscssssssscsssssscsssssss" /></g></svg>
