<?xml version="1.0" encoding="UTF-8" standalone="no"?>
<!-- Created with Inkscape (http://www.inkscape.org/) -->

<svg
   width="119.895mm"
   height="119.895mm"
   viewBox="0 0 119.89499 119.895"
   version="1.1"
   id="svg2919"
   inkscape:version="1.2.2 (b0a8486541, 2022-12-01)"
   sodipodi:docname="claw thin.svg"
   xmlns:inkscape="http://www.inkscape.org/namespaces/inkscape"
   xmlns:sodipodi="http://sodipodi.sourceforge.net/DTD/sodipodi-0.dtd"
   xmlns="http://www.w3.org/2000/svg"
   xmlns:svg="http://www.w3.org/2000/svg">
  <sodipodi:namedview
     id="namedview2921"
     pagecolor="#ffffff"
     bordercolor="#666666"
     borderopacity="1.0"
     inkscape:showpageshadow="2"
     inkscape:pageopacity="0.0"
     inkscape:pagecheckerboard="true"
     inkscape:deskcolor="#d1d1d1"
     inkscape:document-units="mm"
     showgrid="false"
     inkscape:zoom="0.914906"
     inkscape:cx="413.1572"
     inkscape:cy="546.50423"
     inkscape:window-width="2560"
     inkscape:window-height="1371"
     inkscape:window-x="0"
     inkscape:window-y="0"
     inkscape:window-maximized="1"
     inkscape:current-layer="layer1" />
  <defs
     id="defs2916" />
  <g
     inkscape:label="Layer 1"
     inkscape:groupmode="layer"
     id="layer1"
     transform="translate(4.06855,-3.674543)">
    <g
       id="g2487"
       transform="translate(-226.94383,-81.132684)"
       style="fill:#ffffff;fill-opacity:1">
      <path
         id="path2229"
         style="fill:#ffffff;fill-opacity:1;stroke:none;stroke-width:0.264583px;stroke-linecap:butt;stroke-linejoin:miter;stroke-opacity:1"
         inkscape:transform-center-x="0.76590646"
         inkscape:transform-center-y="3.1901473"
         d="m 263.18497,90.052384 -1.99626,11.278386 c 0.54781,-0.4879 1.14526,-0.88773 1.78697,-1.18133 1.85873,-0.850403 3.9705,-0.79153 5.86889,0.0775 z m 2.74867,12.106756 c -0.63854,-0.009 -1.26671,0.12664 -1.85622,0.39636 -1.08968,0.49855 -2.12161,1.51664 -2.78071,3.16363 l 8.77208,-1.14308 c -0.028,-0.0397 -0.0545,-0.0846 -0.0832,-0.12196 -1.19354,-1.55083 -2.64718,-2.27455 -4.05195,-2.29495 z" />
      <path
         id="path2229-3"
         style="fill:#ffffff;fill-opacity:1;stroke:none;stroke-width:0.264583px;stroke-linecap:butt;stroke-linejoin:miter;stroke-opacity:1"
         d="m 287.05741,84.807227 -4.73924,12.106237 c 1.56842,-1.024064 3.44533,-1.447272 5.21053,-1.310514 v -5.17e-4 c 1.35365,0.104866 2.6688,0.503982 3.81011,1.17874 z m -0.20153,13.412101 c -1.75886,-0.02542 -3.45075,0.597958 -4.49999,2.225182 l 9.47488,0.70746 c -0.2184,-0.63756 -0.62334,-1.181461 -1.1927,-1.649 -0.84801,-0.696359 -2.05896,-1.164321 -3.31246,-1.261421 l -5.1e-4,-5.17e-4 c -0.15669,-0.01214 -0.31314,-0.01945 -0.46922,-0.0217 z" />
      <path
         id="path2229-3-5"
         style="fill:#ffffff;fill-opacity:1;stroke:none;stroke-width:0.264583px;stroke-linecap:butt;stroke-linejoin:miter;stroke-opacity:1"
         d="m 222.87528,127.48472 4.75475,13.49892 c 0.61271,-1.78437 1.77642,-3.34555 3.24838,-4.51393 1.24458,-0.98789 2.72456,-1.70295 4.3124,-2.00557 z m 13.75524,9.47023 c -1.47012,0.06 -2.9211,0.64506 -4.10776,1.58698 -1.35619,1.07648 -2.33366,2.59857 -2.62516,4.19716 -0.181,0.99254 -0.12419,2.018 0.28163,3.05873 l 10.33012,-7.64811 c -1.06118,-0.76833 -2.15996,-1.11836 -3.24838,-1.18753 -0.21008,-0.0134 -0.42044,-0.0158 -0.63045,-0.007 z" />
      <path
         id="path2229-6"
         style="fill:#ffffff;fill-opacity:1;stroke:none;stroke-width:0.264583px;stroke-linecap:butt;stroke-linejoin:miter;stroke-opacity:1"
         d="m 312.40005,92.109106 -6.84196,10.166304 c 1.19521,-0.34576 2.47085,-0.45915 3.73001,-0.31316 1.66382,0.19291 3.32066,0.86905 4.60489,2.11253 z m -3.94859,12.441104 c -1.25035,-0.0394 -2.54486,0.27633 -3.55948,0.85524 -0.21753,0.12412 -0.41624,0.26116 -0.60461,0.40411 l 9.1705,2.77399 c -0.20024,-0.87132 -0.53864,-1.56334 -0.95653,-2.10995 -0.8565,-1.12029 -2.11069,-1.72151 -3.51762,-1.88464 -0.17586,-0.0204 -0.35364,-0.0331 -0.53226,-0.0387 z" />
      <path
         id="path2229-7"
         style="fill:#ffffff;fill-opacity:1;stroke:none;stroke-width:0.264583px;stroke-linecap:butt;stroke-linejoin:miter;stroke-opacity:1"
         d="m 330.26201,104.50938 -5.75262,8.23413 c 1.03422,-0.30465 2.13087,-0.39189 3.19516,-0.23255 1.30439,0.1953 2.58121,0.78008 3.60339,1.76217 z m -3.70675,10.56887 c -0.74205,0.015 -1.48832,0.20919 -2.15284,0.5581 l 6.01359,1.93373 c -0.15819,-0.3701 -0.34416,-0.69423 -0.55346,-0.96738 -0.65983,-0.86116 -1.54975,-1.32683 -2.54868,-1.47639 -0.24973,-0.0374 -0.50405,-0.0532 -0.75861,-0.0481 z" />
      <path
         style="fill:#ffffff;fill-opacity:1;stroke:none;stroke-width:0.264583px;stroke-linecap:butt;stroke-linejoin:miter;stroke-opacity:1"
         d="m 252.77188,177.49261 c -6.26118,-13.94403 -12.11802,-16.50012 -22.44776,-28.92884 -6.54133,-7.87051 5.91164,-18.42045 12.91536,-9.58625 4.60138,5.80399 15.43615,15.53235 16.46083,6.04088 1.31096,-12.14318 -0.11562,-20.28221 -0.44523,-34.59767 -0.2266,-9.84154 7.69501,-12.082459 11.78092,-6.77341 3.52548,4.58085 1.40096,17.35385 4.34014,33.605 0.12123,0.67028 1.84698,0.10086 1.96221,-0.57048 2.40027,-13.98396 1.27114,-27.67827 2.92129,-34.5878 1.86801,-7.821728 12.89107,-5.97694 13.08028,0.0226 0.43195,13.69646 0.46122,21.7684 0.57044,34.11673 0.0114,1.28527 2.87068,2.54729 3.29973,-0.15024 1.79829,-11.30612 3.30179,-22.62432 4.26219,-28.16797 1.10037,-6.35158 14.87775,-7.42849 13.39319,4.22717 -1.39835,10.97883 -2.69109,14.7891 -3.38444,26.96941 -0.0556,0.97629 2.59451,1.19052 2.92129,0.26886 2.65723,-7.49463 3.34913,-12.19667 6.68869,-21.84415 1.87717,-5.42287 11.53347,-5.58054 11.12597,3.26921 -0.62972,13.67556 -4.43238,19.84701 -9.09372,40.01664 -4.71501,20.40187 -3.92094,25.15211 -12.29178,33.69722 -8.37084,8.5451 -26.8262,14.85131 -39.30524,5.65619 -12.47904,-9.19513 -12.42613,-8.40724 -18.75436,-22.68309 z"
         id="path2131"
         sodipodi:nodetypes="csssssssssssssssssszzc" />
    </g>
  </g>
</svg>
